<?xml version="1.0" standalone="no"?>
<!DOCTYPE svg PUBLIC "-//W3C//DTD SVG 20010904//EN"
 "http://www.w3.org/TR/2001/REC-SVG-20010904/DTD/svg10.dtd">
<svg version="1.0" xmlns="http://www.w3.org/2000/svg"
 width="1279.000000pt" height="846.000000pt" viewBox="0 0 1279.000000 846.000000"
 preserveAspectRatio="xMidYMid meet">
<metadata>
Created by potrace 1.15, written by Peter Selinger 2001-2017
</metadata>
<g transform="translate(0.000000,846.000000) scale(0.100000,-0.100000)"
fill="#000000" stroke="none">
<path d="M5225 7051 c-78 -19 -122 -82 -111 -158 15 -108 82 -192 205 -257 63
-33 71 -40 71 -66 0 -16 4 -31 8 -34 5 -3 23 -34 41 -70 17 -35 38 -66 46 -70
19 -7 45 31 45 64 0 15 16 49 35 76 19 27 35 57 35 66 0 22 -38 58 -61 58 -10
0 -23 8 -28 18 -7 10 -14 13 -18 7 -5 -5 -17 -15 -29 -21 -19 -11 -20 -10 -16
17 3 19 14 35 31 44 18 10 21 14 9 15 -9 0 -30 -12 -47 -26 l-31 -26 -16 38
c-17 39 -17 40 2 230 6 58 5 62 -21 82 -29 23 -88 28 -150 13z m113 -163 c7
-7 12 -30 12 -52 0 -23 5 -59 11 -81 22 -85 22 -85 5 -85 -9 0 -34 9 -55 20
-125 63 -132 206 -10 209 14 1 30 -4 37 -11z m196 -278 c32 -12 34 -43 6 -85
-11 -16 -20 -39 -20 -51 0 -11 -6 -29 -14 -39 -12 -17 -15 -16 -40 21 -30 45
-35 107 -10 142 16 24 38 27 78 12z"/>
<path d="M5863 6733 c-32 -6 -63 -50 -63 -87 0 -17 12 -62 25 -101 14 -38 25
-73 25 -77 0 -4 -21 -8 -47 -10 -37 -2 -47 -7 -49 -23 -3 -22 -39 -55 -60 -55
-7 0 -25 -5 -39 -12 -31 -14 -28 -40 11 -97 l24 -36 -32 -8 c-88 -20 -113 -30
-95 -36 10 -4 18 -11 17 -15 -1 -5 4 -12 10 -16 8 -5 -2 -21 -29 -48 -37 -37
-40 -43 -31 -68 6 -15 22 -41 37 -58 32 -38 73 -123 73 -152 0 -12 9 -32 19
-45 16 -19 22 -22 32 -11 18 17 32 15 25 -4 -3 -8 -2 -12 4 -9 5 3 23 -1 39
-10 60 -31 135 -13 316 75 306 148 452 305 463 502 7 127 -34 198 -161 272
-130 76 -416 148 -514 129z m231 -44 c145 -37 278 -95 341 -151 155 -136 75
-400 -170 -564 -84 -57 -236 -137 -325 -172 -87 -34 -160 -49 -160 -33 0 6 3
11 8 11 4 0 20 10 35 23 25 20 27 24 15 49 -7 15 -21 29 -32 32 -21 6 -12 26
12 26 16 0 37 32 111 175 21 40 27 69 32 150 3 55 7 82 8 60 1 -22 6 -58 11
-80 7 -31 8 -20 5 45 -3 47 -8 108 -11 137 -6 49 -4 54 24 83 36 35 71 38 163
15 126 -33 175 -87 173 -195 -1 -88 -33 -149 -121 -230 -61 -57 -63 -60 -19
-29 51 36 97 87 117 132 7 15 16 27 21 27 4 0 7 3 6 8 -3 14 14 117 23 132 5
9 6 1 2 -21 -3 -21 0 -45 7 -55 10 -17 11 -16 6 8 -3 14 -3 40 0 57 6 29 8 30
20 14 9 -12 13 -14 14 -5 0 7 5 10 10 7 6 -3 10 -16 10 -28 0 -14 -3 -18 -8
-10 -4 6 -8 -7 -8 -30 l-1 -42 13 35 c20 56 17 164 -6 210 -33 65 -115 115
-242 149 -219 58 -288 31 -275 -109 7 -80 -11 -79 -42 1 -72 186 -13 229 233
168z m-383 -612 c28 -22 40 -96 24 -156 -16 -61 -40 -101 -60 -101 -14 0 -19
12 -29 71 -4 19 -20 57 -36 83 -35 54 -37 67 -12 88 33 29 86 36 113 15z"/>
<path d="M6032 6397 c-19 -21 -21 -33 -20 -137 1 -97 -3 -124 -21 -169 -41
-102 -10 -126 94 -71 84 44 128 82 158 138 60 110 43 196 -47 238 -68 32 -135
32 -164 1z"/>
<path d="M3940 6677 c-189 -64 -318 -249 -381 -548 -29 -136 -31 -375 -5 -524
19 -107 71 -289 106 -369 11 -27 18 -51 16 -53 -2 -3 -42 -7 -87 -10 -75 -6
-82 -5 -76 11 4 9 3 15 -2 11 -5 -3 -12 1 -15 7 -3 7 -3 3 0 -9 6 -26 -2 -30
-151 -83 -152 -55 -281 -126 -351 -195 -73 -72 -85 -107 -58 -174 l17 -44 -41
-34 c-23 -19 -42 -42 -42 -51 0 -23 96 -122 118 -122 13 0 47 -33 49 -47 2 -7
-6 -30 -17 -51 -11 -21 -23 -58 -26 -82 -5 -37 -2 -50 16 -73 23 -29 154 -107
181 -107 9 0 32 20 53 44 46 55 163 146 235 181 l54 27 -34 27 c-144 112 -194
167 -205 228 -19 99 113 209 313 264 163 45 296 6 429 -126 55 -55 81 -92 115
-161 24 -49 47 -92 52 -95 4 -3 5 -14 1 -24 -5 -13 -4 -16 4 -11 7 4 12 13 12
21 0 21 29 45 45 39 9 -4 15 0 16 7 1 8 5 3 9 -11 20 -63 4 -314 -25 -395 -4
-11 25 12 65 51 79 78 80 82 34 149 -24 36 -24 38 -10 84 9 25 21 80 28 121
l12 74 13 -59 c7 -33 16 -75 19 -93 5 -22 11 -31 20 -28 10 4 14 -4 15 -27 1
-20 3 -25 6 -13 3 11 -3 94 -12 185 -10 98 -15 194 -12 236 13 146 66 313 141
447 42 73 50 100 19 61 -72 -93 -159 -331 -176 -485 -10 -86 -13 -98 -30 -98
-19 0 -19 6 -15 123 4 94 11 140 31 198 43 129 141 312 226 419 19 25 36 46
37 48 1 2 17 -4 34 -13 27 -14 34 -15 44 -3 7 7 46 51 87 98 41 47 79 88 84
92 6 5 6 8 -1 8 -6 0 -17 -7 -24 -15 -16 -19 -34 -19 -49 -1 -9 11 -8 18 7 33
43 41 127 162 155 222 42 89 48 192 17 274 -38 101 -171 221 -339 307 -89 45
-261 109 -361 134 -138 35 -294 36 -390 3z"/>
<path d="M2654 6654 c-41 -9 -74 -57 -81 -115 -4 -37 -12 -59 -26 -70 -19 -16
-19 -17 -3 -67 28 -84 105 -189 233 -320 128 -130 124 -127 191 -106 19 5 14
67 -10 131 -32 84 -29 166 11 268 43 110 41 148 -7 194 -57 54 -230 102 -308
85z m194 -156 c18 -5 30 -13 27 -18 -3 -5 0 -12 6 -16 8 -4 9 -3 5 4 -12 20
13 13 34 -8 17 -17 30 -90 16 -90 -2 0 -13 15 -24 34 -22 36 -66 56 -128 56
-80 0 -106 -84 -57 -182 16 -31 25 -54 20 -51 -5 3 -22 33 -38 67 -32 67 -40
158 -16 189 24 34 76 39 155 15z"/>
<path d="M3415 6513 c-67 -167 -103 -337 -109 -528 -5 -124 -1 -111 10 33 3
45 10 80 15 76 5 -3 9 0 9 5 0 6 6 11 14 11 16 0 32 115 27 198 -2 33 1 52 8
52 6 0 11 -8 11 -17 0 -15 2 -16 10 -3 12 19 13 33 1 26 -21 -13 -21 52 -1
104 11 29 19 54 17 57 -3 2 -8 -4 -12 -14z"/>
<path d="M2500 6398 c0 -18 5 -50 11 -72 8 -27 7 -46 -1 -65 -21 -52 30 -137
120 -200 52 -36 217 -107 227 -98 2 3 -31 38 -73 78 -104 101 -190 210 -231
294 -18 38 -33 75 -33 82 0 7 -4 13 -10 13 -5 0 -10 -15 -10 -32z"/>
<path d="M3030 6115 c-9 -11 -13 -46 -11 -111 2 -116 -10 -164 -55 -214 l-35
-39 67 -65 c76 -74 134 -102 188 -92 37 7 50 18 61 56 4 14 24 39 43 57 33 30
34 35 30 83 -3 28 -13 59 -23 70 -13 15 -16 29 -10 67 3 27 2 60 -3 73 -32 85
-210 165 -252 115z m132 -130 c89 -59 48 -175 -80 -223 -50 -19 -53 -19 -74
-3 l-21 18 22 36 c12 20 25 59 28 87 4 36 12 55 27 65 16 12 17 15 4 15 -9 0
-19 -6 -21 -12 -3 -7 -6 -5 -6 6 -1 26 29 47 59 40 14 -3 42 -16 62 -29z"/>
<path d="M6742 5915 c-101 -22 -195 -95 -233 -179 -9 -19 -18 -24 -33 -21 -73
17 -116 21 -125 12 -18 -18 -13 -27 15 -27 14 0 45 -5 68 -11 l44 -11 -11 -34
c-8 -26 -15 -33 -26 -29 -9 4 -38 11 -64 18 -58 13 -63 8 -73 -72 -6 -51 -1
-268 7 -275 2 -2 32 -1 67 2 l62 4 1 67 c1 36 4 53 6 38 3 -19 10 -27 21 -26
9 2 33 -3 53 -9 l36 -13 2 -72 c5 -177 34 -276 159 -537 45 -96 56 -122 54
-132 -1 -5 6 -8 16 -9 10 0 12 -3 5 -6 -7 -2 -13 -9 -13 -14 0 -4 7 -6 15 -3
8 4 15 3 15 0 0 -4 -10 -10 -22 -15 l-22 -8 22 -5 c12 -4 20 -2 16 3 -3 5 0 9
5 9 6 0 11 -4 11 -10 0 -5 12 -16 28 -24 16 -9 21 -16 12 -17 -8 0 5 -7 29
-15 41 -13 47 -12 80 7 36 21 81 78 81 105 0 8 4 14 9 14 5 0 7 10 4 23 -3 13
-1 17 4 11 4 -7 9 27 11 79 3 115 30 204 87 293 25 38 47 68 50 67 7 -4 45 35
45 47 0 6 7 10 15 10 9 0 2 -18 -24 -57 -57 -86 -98 -173 -121 -255 -20 -74
-27 -208 -11 -208 5 0 16 -7 24 -15 13 -12 16 -4 27 68 27 190 104 343 253
507 35 39 46 57 42 73 -7 26 46 84 65 72 17 -10 -7 -35 -28 -28 -14 4 -14 3
-3 -5 16 -12 28 -5 139 76 68 50 72 55 58 71 -9 10 -13 21 -9 25 5 5 -1 7 -12
6 -34 -4 -36 -1 -20 30 20 40 19 99 -4 136 -28 45 -127 107 -246 153 -267 103
-523 148 -663 116z m261 -234 c18 -1 26 -5 21 -12 -4 -8 0 -9 15 -4 13 4 49
-3 89 -16 188 -62 272 -129 272 -216 -1 -45 -33 -102 -113 -198 -142 -169
-207 -298 -233 -466 -10 -61 -26 -124 -40 -151 -23 -45 -64 -78 -98 -78 -52 0
-159 161 -262 394 -117 266 -94 529 60 675 36 33 68 53 97 61 24 6 48 12 54
14 8 2 32 2 138 -3z"/>
<path d="M6641 5212 c-3 -151 101 -405 222 -544 69 -80 146 -35 162 94 l5 43
-14 -44 c-19 -55 -52 -91 -86 -91 -44 0 -115 89 -192 245 -47 94 -68 162 -83
264 -12 80 -13 82 -14 33z"/>
<path d="M2320 5810 c0 -6 7 -25 16 -43 13 -24 14 -32 4 -35 -7 -3 -29 -19
-48 -37 -28 -25 -33 -36 -27 -51 5 -10 9 -21 9 -24 6 -26 77 -78 98 -72 4 1
20 -20 36 -47 18 -29 49 -60 77 -77 149 -92 202 -133 255 -199 31 -38 57 -74
58 -79 1 -21 11 -56 18 -68 4 -7 3 -8 -5 -4 -6 4 -25 35 -43 69 -63 126 -125
179 -331 282 -131 67 -182 102 -197 140 -7 16 -9 17 -9 3 -1 -9 11 -30 25 -47
l26 -31 -23 -31 c-26 -37 -36 -107 -19 -138 11 -22 66 -61 85 -61 6 0 -6 9
-25 21 -43 25 -60 46 -60 73 0 20 1 20 19 -3 14 -18 20 -20 23 -10 5 11 9 10
24 -5 19 -20 19 -20 -1 -6 -17 12 -18 12 -8 0 14 -15 58 -26 49 -12 -3 5 1 9
8 9 9 0 12 -7 8 -16 -3 -9 -2 -13 3 -9 4 4 16 -4 27 -17 10 -14 37 -30 58 -36
22 -7 37 -15 35 -20 -3 -4 5 -5 17 -2 19 4 20 3 8 -7 -12 -9 -11 -10 9 -5 16
5 21 4 17 -4 -4 -7 -1 -9 8 -5 8 3 23 1 33 -6 15 -9 14 -10 -7 -4 -29 7 -26 2
9 -16 15 -8 21 -8 17 -1 -9 14 0 14 25 0 11 -5 17 -14 15 -18 -3 -4 9 -21 26
-37 18 -16 26 -20 18 -9 -14 18 -14 19 2 7 9 -8 15 -19 12 -25 -2 -7 13 -30
35 -51 42 -41 71 -43 71 -6 l0 21 26 -20 c29 -22 50 -19 60 11 5 18 7 18 23 4
27 -24 37 -19 13 7 -26 27 -45 72 -67 156 -9 36 -28 87 -41 114 -35 68 -157
187 -295 289 -110 81 -179 148 -179 175 0 6 -4 15 -10 18 -5 3 -10 1 -10 -5z
m211 -293 c4 -5 9 -4 13 2 14 22 34 10 120 -70 84 -79 119 -125 151 -201 24
-58 -4 -49 -54 17 -24 32 -75 78 -119 109 -86 60 -108 81 -115 111 -4 16 -5
15 -6 -6 -1 -29 14 -45 110 -112 67 -47 196 -184 183 -196 -3 -3 -18 9 -33 28
-64 84 -116 130 -206 186 -135 83 -170 129 -129 169 14 15 18 14 47 -6 18 -12
35 -26 38 -31z"/>
<path d="M8080 5735 c-25 -8 -72 -35 -105 -60 -52 -39 -61 -51 -71 -93 -12
-57 -39 -98 -96 -146 -39 -34 -40 -37 -25 -54 10 -10 14 -22 10 -26 -5 -4 -3
-7 2 -5 6 1 18 -1 28 -6 10 -4 19 -6 20 -4 1 2 13 27 27 54 72 143 226 215
322 150 71 -48 148 -178 147 -250 0 -65 -23 -84 -131 -109 -115 -27 -195 -65
-258 -122 -31 -30 -60 -51 -63 -48 -6 6 42 48 118 102 22 16 72 39 110 52 115
37 134 48 144 86 12 43 -1 90 -40 155 -54 86 -133 113 -215 71 -47 -24 -105
-81 -130 -127 -17 -32 -17 -33 6 -65 12 -17 25 -51 28 -75 4 -39 1 -47 -34
-84 -25 -26 -77 -59 -144 -92 -108 -53 -205 -114 -230 -144 -8 -10 14 1 49 24
35 22 70 41 77 41 18 0 51 -45 59 -80 10 -46 -10 -68 -99 -111 -45 -21 -99
-51 -118 -67 -34 -25 -134 -143 -109 -128 6 4 11 2 11 -5 0 -6 24 10 53 37 67
64 101 83 222 129 128 48 140 60 139 130 -1 35 3 55 10 55 23 1 86 37 79 45
-5 4 0 5 9 2 13 -4 16 -2 11 11 -5 14 -3 15 7 5 11 -10 24 -3 67 38 87 82 189
120 375 138 150 15 185 42 175 136 -6 59 -47 146 -117 250 -111 164 -213 224
-320 190z"/>
<path d="M6180 5734 c-132 -19 -160 -27 -160 -42 0 -14 -2 -14 -9 -3 -8 12
-19 12 -73 -3 -199 -56 -493 -195 -546 -259 -10 -11 -9 -17 3 -27 12 -10 22
-6 57 25 54 47 271 153 407 200 116 40 267 72 356 77 47 2 60 7 63 21 3 14 -3
17 -35 16 -21 -1 -49 -3 -63 -5z"/>
<path d="M6068 5634 c-93 -20 -209 -65 -303 -119 -154 -88 -198 -156 -164
-255 11 -31 10 -34 -27 -65 -28 -24 -42 -30 -51 -23 -10 8 -13 1 -13 -29 0
-54 -37 -123 -82 -152 -23 -15 -38 -32 -38 -44 0 -16 -2 -17 -15 -7 -12 10
-21 10 -40 2 l-25 -12 0 -175 0 -175 23 0 c17 0 23 6 25 26 4 48 71 172 72
134 1 -41 170 -116 188 -84 7 12 17 13 61 3 48 -10 52 -13 49 -37 l-3 -27 95
3 c52 2 100 3 105 2 6 0 51 -3 100 -6 l90 -5 -40 26 c-22 14 -94 52 -161 84
-179 87 -229 140 -204 215 l11 36 69 -35 c67 -34 68 -34 68 -76 1 -60 25 -87
128 -142 49 -26 112 -63 140 -82 41 -28 60 -35 100 -35 27 0 103 -7 169 -15
66 -8 126 -15 133 -15 9 0 2 20 -19 57 -18 32 -56 102 -85 156 -46 88 -60 106
-143 178 -106 92 -131 128 -131 183 0 35 6 46 48 85 l48 46 -9 60 c-8 59 -3
239 9 303 l6 32 -58 -1 c-33 0 -89 -7 -126 -15z"/>
<path d="M4880 5554 c-30 -37 -60 -72 -67 -79 -9 -10 -7 -17 12 -35 40 -38 68
-104 60 -142 -11 -51 -40 -84 -141 -159 -92 -69 -172 -149 -199 -199 -7 -14
-16 -52 -20 -85 l-7 -60 33 65 c44 86 177 219 333 330 147 105 178 140 184
213 3 41 -1 63 -16 93 -25 48 -89 124 -105 124 -7 0 -37 -30 -67 -66z"/>
<path d="M4969 5187 c-111 -55 -260 -188 -335 -302 -37 -55 -70 -139 -80 -204
l-7 -42 37 22 c21 12 51 39 69 61 17 21 48 49 69 60 21 12 38 25 38 29 0 4 15
11 33 14 39 9 127 51 184 89 71 48 79 103 29 208 l-26 53 23 17 c29 23 21 22
-34 -5z"/>
<path d="M7475 5148 c-87 -97 -158 -215 -196 -327 -25 -72 -24 -75 9 -19 34
59 82 111 158 172 83 67 107 100 107 146 0 21 -7 47 -15 59 -15 22 -16 21 -63
-31z"/>
<path d="M5241 4918 c-51 -11 -51 6 0 -205 47 -199 59 -192 59 37 0 99 -3 180
-7 179 -5 -1 -28 -6 -52 -11z"/>
<path d="M5100 4889 c-71 -19 -150 -42 -150 -44 0 -2 7 -22 15 -45 29 -83 1
-115 -116 -130 -88 -11 -118 -21 -181 -61 -39 -25 -68 -63 -59 -77 1 -2 -6
-10 -16 -18 -17 -14 -16 -14 5 -4 13 6 26 18 29 26 3 8 9 14 14 14 4 0 29 14
54 31 25 17 48 29 50 27 3 -2 -14 -39 -37 -83 -31 -60 -37 -77 -23 -71 96 36
346 91 466 102 43 4 82 10 89 14 8 5 3 49 -22 166 -32 152 -35 159 -58 161
-14 1 -41 -3 -60 -8z"/>
<path d="M8421 4843 c-30 -25 -68 -144 -75 -233 -9 -118 -13 -136 -48 -206
-28 -57 -49 -81 -103 -122 -104 -78 -136 -123 -110 -158 18 -26 115 -29 259
-9 259 36 387 107 454 254 30 65 33 146 8 205 -19 47 -19 47 -1 40 22 -9 84
15 95 36 6 10 10 37 10 59 l0 41 -57 2 c-71 2 -68 2 -123 -11 -44 -10 -44 -10
18 -6 59 5 63 3 74 -20 8 -19 14 -22 20 -13 6 10 8 8 8 -4 0 -10 -10 -28 -21
-39 -18 -18 -29 -20 -68 -15 -36 5 -53 14 -78 43 -18 20 -33 32 -33 27 0 -5
-5 -1 -11 9 -12 21 -2 38 10 18 5 -7 15 -11 22 -9 17 6 -81 80 -141 107 -55
25 -82 26 -109 4z"/>
<path d="M7745 4743 c-11 -2 -42 -11 -68 -20 -47 -15 -48 -16 -25 -28 12 -6
33 -10 45 -8 18 3 24 -4 34 -37 11 -37 10 -43 -7 -60 -12 -12 -45 -22 -89 -29
l-70 -10 74 5 c58 3 79 9 93 24 11 11 24 21 31 21 44 5 67 4 67 -3 0 -4 5 -8
10 -8 15 0 12 23 -11 95 -23 68 -27 71 -84 58z"/>
<path d="M8037 4712 c-24 -26 -22 -40 19 -145 26 -64 37 -109 38 -149 0 -32 4
-58 8 -58 18 0 19 58 2 141 -21 103 -15 122 36 127 17 2 30 0 27 -5 -3 -4 1
-17 9 -28 13 -18 14 -17 14 14 0 18 -5 52 -11 77 l-11 44 -58 0 c-42 0 -61 -5
-73 -18z"/>
<path d="M3610 4365 c0 -3 16 -19 35 -36 19 -17 35 -35 35 -40 0 -20 -35 -7
-71 26 -22 19 -44 35 -50 35 -41 0 -210 -114 -288 -194 l-44 -45 47 -22 c43
-21 55 -37 40 -52 -4 -3 -26 5 -49 18 -23 14 -45 25 -49 25 -13 0 -36 -68 -36
-105 0 -76 58 -151 167 -214 167 -98 264 -175 328 -262 52 -71 80 -141 97
-245 13 -78 30 -104 43 -64 5 17 9 19 21 9 13 -11 15 -2 13 67 -1 71 -5 88
-45 169 -46 96 -86 143 -211 252 -108 95 -117 159 -34 246 134 142 281 119
379 -60 l28 -53 24 32 c28 38 28 53 -1 127 -50 123 -155 253 -232 286 -17 8
-52 34 -76 59 -37 40 -71 59 -71 41z"/>
<path d="M2725 4196 c-45 -70 -75 -147 -75 -192 0 -57 23 -88 84 -115 41 -17
54 -28 50 -39 -15 -40 -27 -119 -20 -143 8 -34 44 -67 73 -67 l23 0 0 283 0
283 -45 22 c-25 12 -48 22 -50 22 -3 0 -21 -24 -40 -54z"/>
<path d="M2870 3914 l0 -286 33 6 c87 16 196 26 234 20 35 -5 45 -12 61 -42
17 -34 17 -36 -1 -91 -12 -35 -17 -70 -14 -94 5 -40 37 -82 67 -92 12 -4 15
-13 12 -34 -12 -81 40 -132 114 -113 99 26 135 24 204 -8 58 -28 66 -30 76
-15 8 10 14 12 19 6 12 -20 45 -12 57 14 9 19 8 43 -5 106 -34 173 -130 273
-449 472 -36 22 -97 86 -114 118 -30 60 -28 111 10 200 5 13 -3 21 -36 34 -46
19 -248 85 -260 85 -5 0 -8 -129 -8 -286z"/>
<path d="M3606 3768 c-13 -46 0 -72 85 -158 58 -59 89 -100 110 -146 33 -73
54 -93 47 -46 -2 17 -1 29 2 27 4 -2 18 19 30 48 13 29 29 59 36 67 18 23 26
97 11 103 -9 4 -9 6 1 6 6 1 12 7 12 15 0 17 -34 16 -68 -3 -21 -11 -22 -13
-5 -29 16 -16 16 -17 -5 -20 -12 -2 -22 -8 -22 -13 0 -5 -21 -9 -46 -9 -27 0
-43 -4 -39 -10 11 -18 0 -10 -30 22 -17 18 -23 28 -15 23 9 -5 12 -5 7 1 -5 5
-12 9 -15 9 -4 0 -19 8 -33 18 -27 18 -45 52 -52 97 l-3 25 -8 -27z"/>
<path d="M2619 3457 c-66 -45 -96 -117 -68 -169 8 -15 -2 -11 -36 16 -86 65
-138 44 -171 -71 -20 -70 -12 -118 29 -160 67 -70 190 -80 299 -25 44 23 55
26 51 13 -9 -25 -43 -72 -77 -108 l-30 -33 122 0 122 0 0 28 c0 15 -16 59 -36
99 l-37 72 24 25 c13 14 30 26 37 26 7 0 12 14 12 38 0 31 -5 40 -31 54 -22
13 -41 41 -73 111 -54 115 -73 127 -137 84z"/>
<path d="M2882 3474 c-9 -4 -12 -42 -11 -150 0 -134 2 -144 19 -144 26 0 34
18 18 37 -12 15 -10 14 19 0 35 -19 73 -22 73 -8 0 6 -9 26 -21 45 -17 29 -20
48 -17 120 1 46 0 87 -3 90 -9 9 -63 16 -77 10z"/>
<path d="M4073 3473 c-12 -2 -27 -11 -33 -19 -7 -8 -18 -14 -24 -14 -31 0 -84
-131 -91 -223 l-6 -72 20 58 c53 159 152 217 249 147 42 -30 78 -84 73 -109
-1 -7 2 -11 7 -7 22 13 101 -256 103 -352 0 -20 5 -46 10 -57 29 -62 -29 280
-66 390 -25 73 -71 159 -105 198 -28 33 -87 69 -107 66 -4 -1 -18 -4 -30 -6z"/>
<path d="M9329 3374 c-7 -9 -21 -13 -31 -11 -12 4 -18 0 -18 -13 0 -10 -4 -20
-10 -22 -5 -1 -12 -22 -14 -45 -4 -29 -20 -62 -50 -103 -25 -33 -48 -70 -51
-80 -4 -11 -10 -20 -15 -20 -5 0 -11 -8 -14 -17 -11 -34 -83 -70 -151 -76 -28
-3 -74 92 -82 167 -8 79 -28 74 -36 -9 -7 -68 -32 -138 -67 -182 -11 -14 -20
-28 -20 -32 0 -3 81 -7 180 -8 107 -1 178 2 174 8 -3 5 0 9 7 9 7 0 27 11 45
25 l33 26 22 -34 22 -33 108 1 c93 1 111 3 122 19 12 17 17 17 50 5 20 -7 37
-16 37 -21 0 -4 47 -6 105 -3 134 4 204 34 289 120 31 32 54 60 52 62 -3 3
-22 -1 -43 -8 -21 -7 -40 -14 -43 -14 -3 0 -21 -6 -40 -13 -48 -16 -146 -18
-197 -4 -45 13 -103 56 -103 76 0 13 -75 86 -88 86 -4 0 -21 14 -39 30 -18 17
-37 30 -42 30 -6 0 -11 6 -11 13 0 6 -15 29 -34 49 -30 32 -36 35 -47 22z
m108 -170 c47 -23 83 -78 83 -129 0 -47 -19 -95 -37 -95 -7 0 -13 -4 -13 -8 0
-25 -130 -40 -189 -21 -41 12 -78 84 -72 139 6 51 42 100 91 122 28 12 102 8
137 -8z"/>
<path d="M6000 3331 c-58 -44 -89 -81 -68 -81 7 0 2 -6 -11 -13 -25 -12 -65
-76 -83 -132 -16 -49 -37 -139 -38 -157 0 -31 17 -19 24 15 8 45 61 153 96
198 63 79 173 101 266 54 27 -14 45 -25 40 -25 -5 0 -3 -7 4 -15 7 -8 16 -12
21 -10 4 3 16 -9 25 -27 9 -17 23 -38 31 -46 8 -8 12 -21 9 -29 -3 -8 -2 -12
3 -8 5 3 15 -12 22 -32 7 -21 14 -32 17 -25 7 22 -94 214 -139 266 -54 61
-115 106 -144 106 -13 0 -46 -18 -75 -39z"/>
<path d="M3500 3052 c-56 -7 -123 -36 -170 -73 -28 -22 -50 -44 -50 -49 0 -6
63 -10 163 -9 111 0 155 3 139 10 -30 12 -24 33 11 37 18 2 35 -5 52 -22 23
-23 34 -26 92 -26 l67 0 -38 39 c-20 21 -58 48 -83 61 -45 22 -135 38 -183 32z"/>
<path d="M6127 3033 c-4 -3 -7 -31 -7 -60 0 -51 -2 -54 -22 -51 -20 3 -23 10
-26 56 -2 28 -6 52 -10 52 -20 -1 -34 -20 -29 -41 3 -13 8 -34 11 -46 5 -23 4
-23 -105 -23 -80 0 -109 -3 -109 -12 0 -9 -4 -8 -10 2 -9 13 -11 13 -20 0 -5
-8 -10 -10 -10 -5 0 6 -12 10 -27 9 -16 -1 -284 -2 -598 -3 -329 -2 -562 -6
-550 -11 19 -8 19 -9 -2 -9 -13 -1 -23 4 -23 10 0 6 -17 9 -42 7 l-43 -3 -3
-175 c-3 -203 -10 -251 -11 -75 l-1 121 -26 2 c-14 1 -34 7 -45 13 -23 12 -35
6 -24 -10 3 -6 11 -9 16 -6 5 4 9 1 9 -4 0 -6 -6 -11 -12 -11 -9 0 -8 -4 2
-10 12 -7 12 -10 1 -10 -7 0 -11 -6 -8 -15 4 -8 2 -17 -3 -20 -6 -4 -10 -1
-10 5 0 6 -14 -5 -31 -24 -17 -20 -34 -34 -38 -33 -12 4 -101 -79 -101 -94 0
-5 -4 -9 -10 -9 -6 0 -10 38 -10 95 0 52 4 95 9 95 5 0 14 13 19 29 9 24 7 32
-8 46 -10 9 -21 27 -23 39 -2 11 -4 -330 -3 -759 1 -664 1 -692 3 -192 l3 589
88 -6 c48 -4 113 -9 144 -12 56 -6 57 -6 61 23 2 15 1 -243 -1 -574 l-5 -603
822 0 821 0 0 433 0 433 68 -7 c37 -5 111 -8 164 -8 l98 -1 3 -427 c1 -236 2
-72 2 362 0 435 -1 657 -2 495 -3 -310 -3 -310 -50 -310 -13 0 -23 -4 -23 -9
0 -4 -28 -16 -62 -26 -35 -9 -81 -23 -103 -30 -22 -7 -52 -16 -67 -19 l-28 -6
0 103 0 104 26 -5 c30 -6 30 -3 -2 98 -14 42 -19 96 -21 228 -3 164 -2 176 22
234 13 33 22 64 19 69 -6 11 -38 12 -47 2z"/>
<path d="M8110 2118 c4 -663 5 -721 8 -332 l2 471 53 9 c28 4 57 9 62 10 6 1
16 2 23 3 20 2 14 18 -9 24 -27 7 -15 27 17 27 13 0 24 5 24 10 0 6 -16 10
-35 10 -39 0 -48 16 -12 23 12 2 7 3 -11 1 -19 -2 -30 1 -26 7 3 5 1 16 -6 23
-8 11 -4 25 20 62 16 26 30 53 30 58 0 7 -24 10 -65 8 l-65 -4 0 196 c0 108
-3 196 -7 196 -5 0 -6 -361 -3 -802z"/>
<path d="M1907 2794 c-15 -13 -44 -26 -65 -30 -34 -7 -144 6 -188 22 -18 7
-18 7 -1 -13 20 -23 14 -33 -24 -33 -15 0 -31 -5 -35 -11 -9 -15 280 -5 376
14 41 8 64 15 51 16 -16 1 -21 5 -17 16 3 10 -1 15 -12 15 -10 0 -27 6 -37 14
-18 12 -23 11 -48 -10z"/>
<path d="M2650 2115 l0 -695 715 0 715 0 0 695 0 695 -715 0 -715 0 0 -695z
m1097 373 c48 -45 13 -128 -55 -128 -37 0 -72 37 -72 75 0 67 78 100 127 53z
m-349 -160 c28 -84 80 -240 116 -345 37 -106 66 -198 66 -203 0 -7 -28 -10
-76 -8 l-77 3 -13 45 c-7 25 -20 71 -29 103 l-16 57 -107 0 -108 0 -16 -57
c-9 -32 -21 -79 -28 -105 l-13 -48 -78 0 c-44 0 -79 4 -79 8 0 4 36 114 80
243 45 128 96 280 115 336 18 57 36 107 40 113 3 5 43 10 89 10 l82 0 52 -152z
m362 -293 l0 -265 -70 0 -70 0 0 265 0 265 70 0 70 0 0 -265z"/>
<path d="M3257 2353 c-3 -4 -19 -60 -36 -123 -18 -63 -34 -123 -37 -132 -5
-16 3 -18 75 -18 45 0 81 3 81 8 0 11 -70 266 -75 270 -1 2 -5 0 -8 -5z"/>
<path d="M6594 2791 c-2 -2 -4 -310 -4 -683 l0 -678 700 0 c385 0 700 3 700 8
0 4 1 310 3 680 2 651 1 672 -17 678 -21 7 -1375 2 -1382 -5z m560 -295 c104
-32 160 -110 160 -226 -1 -151 -109 -249 -276 -250 l-48 0 -1 -77 c-1 -43 -3
-94 -3 -113 l-2 -35 -67 -3 -67 -3 0 354 c0 194 3 357 7 360 13 13 249 7 297
-7z m512 -172 c32 -15 34 -19 34 -65 0 -54 -4 -56 -57 -34 -51 22 -109 19
-133 -5 -29 -29 -13 -53 63 -91 81 -41 124 -73 142 -109 36 -71 2 -167 -74
-209 -60 -33 -167 -34 -228 -2 -43 21 -43 22 -43 77 0 62 -5 60 75 30 74 -28
155 -16 155 23 0 24 -24 43 -94 76 -100 47 -136 90 -136 164 0 51 11 80 45
113 54 54 172 69 251 32z"/>
<path d="M6990 2265 l0 -135 45 0 c65 0 103 23 127 77 22 49 19 97 -10 145
-20 34 -52 48 -112 48 l-50 0 0 -135z"/>
<path d="M8740 2546 c0 -2 15 -22 34 -43 141 -160 283 -325 359 -415 48 -60
93 -108 99 -108 6 0 54 38 107 83 148 129 186 165 181 171 -3 2 -64 -47 -135
-109 -72 -63 -135 -114 -142 -115 -7 0 -54 48 -105 107 -354 406 -398 453
-398 429z"/>
</g>
</svg>
