<?xml version="1.0" standalone="no"?>
<!DOCTYPE svg PUBLIC "-//W3C//DTD SVG 20010904//EN"
 "http://www.w3.org/TR/2001/REC-SVG-20010904/DTD/svg10.dtd">
<svg version="1.0" xmlns="http://www.w3.org/2000/svg"
 width="1024.000000pt" height="1024.000000pt" viewBox="0 0 1024.000000 1024.000000"
 preserveAspectRatio="xMidYMid meet">
<metadata>
Created by potrace 1.15, written by Peter Selinger 2001-2017
</metadata>
<g transform="translate(0.000000,1024.000000) scale(0.100000,-0.100000)"
fill=" #0000cd" stroke="none">
<path d="M6290 6513 c-112 -12 -300 -50 -400 -80 -63 -19 -116 -36 -118 -38
-2 -2 7 -52 21 -112 14 -59 33 -157 42 -218 22 -139 21 -139 43 -130 9 5 62
25 117 45 354 134 828 126 1338 -22 59 -17 110 -28 113 -26 6 6 144 389 144
400 0 16 -337 108 -520 143 -172 32 -333 45 -540 43 -113 0 -221 -3 -240 -5z"/>
<path d="M2230 4364 l0 -2075 763 4 c844 4 867 5 1137 76 169 44 390 132 390
155 0 6 -7 39 -15 72 -25 108 -37 196 -44 326 l-6 126 -75 -50 c-177 -117
-353 -183 -605 -225 -67 -11 -208 -16 -557 -20 l-468 -5 0 1611 0 1612 603 -4
c530 -3 611 -5 677 -21 64 -15 205 -59 261 -81 14 -5 17 13 28 137 10 128 38
296 55 339 8 19 -21 28 -169 58 -184 36 -318 41 -1159 41 l-816 0 0 -2076z"/>
<path d="M5031 6299 c-5 -13 -192 -435 -415 -938 -223 -503 -406 -919 -406
-926 0 -6 83 -197 184 -425 100 -228 193 -446 206 -484 12 -37 50 -123 85
-190 34 -66 129 -271 210 -454 81 -183 152 -329 156 -325 16 16 830 1858 830
1878 0 21 -814 1862 -831 1879 -6 6 -13 0 -19 -15z"/>
<path d="M6460 4255 l0 -215 425 0 425 0 0 -513 0 -513 -127 -47 c-249 -92
-500 -142 -779 -154 -167 -7 -292 5 -424 40 l-83 22 -86 -41 c-130 -62 -271
-113 -415 -149 l-129 -32 59 -35 c310 -187 662 -263 1103 -238 437 25 824 123
1241 314 l135 62 3 857 2 857 -675 0 -675 0 0 -215z"/>
</g>
</svg>
