<?xml version="1.0" standalone="no"?>
<!DOCTYPE svg PUBLIC "-//W3C//DTD SVG 20010904//EN"
 "http://www.w3.org/TR/2001/REC-SVG-20010904/DTD/svg10.dtd">
<svg version="1.0" xmlns="http://www.w3.org/2000/svg"
width="1024.000000pt" height="1024.000000pt" viewBox="0 0 1024.000000 1024.000000"
 preserveAspectRatio="xMidYMid meet">
<metadata>
Created by potrace 1.15, written by Peter Selinger 2001-2017
</metadata>
<g transform="translate(0.000000,1280.000000) scale(0.100000,-0.100000)"
fill="#0000cd" stroke="none">
<path d="M4943 6874 c-10 -5 -13 -210 -13 -980 l0 -974 495 0 c272 0 495 3
495 8 0 4 -218 6 -485 4 l-485 -3 1 898 c0 494 3 905 7 913 6 12 31 15 137 15
108 0 134 3 156 18 20 13 63 19 200 28 341 21 349 21 349 10 0 -13 47 -15 52
-2 5 15 58 25 58 11 0 -7 -7 -10 -15 -6 -9 3 -15 0 -15 -9 0 -9 -6 -12 -15 -9
-8 4 -15 1 -15 -6 0 -7 -8 -9 -20 -5 -11 3 -20 3 -20 -2 0 -4 -13 -14 -30 -21
-16 -8 -30 -19 -30 -25 0 -8 3 -8 11 0 6 6 18 9 25 6 8 -3 20 0 28 6 7 6 31
11 52 10 105 -3 1301 -1 1348 2 30 2 60 -2 67 -7 8 -6 26 -14 42 -18 15 -3 27
-13 27 -21 0 -22 17 -18 23 4 3 14 -2 21 -20 25 -13 4 -21 11 -18 16 3 6 -3
10 -14 10 -12 0 -21 5 -21 11 0 6 -7 9 -15 6 -8 -4 -17 -2 -20 3 -4 6 -15 10
-26 10 -10 0 -19 4 -19 10 0 5 -6 7 -14 4 -8 -3 -17 0 -21 7 -9 14 62 3 82
-12 7 -7 14 -6 19 2 11 18 279 4 402 -21 133 -27 317 -98 420 -162 19 -12 48
-24 65 -27 45 -10 58 -44 64 -176 l6 -115 -204 -3 -204 -2 213 -3 212 -2 0
129 c0 119 -2 133 -26 179 -31 61 -69 100 -137 145 -57 37 -156 77 -191 77
-12 0 -26 4 -32 9 -28 29 -483 45 -678 24 -59 -6 -86 -5 -104 4 -37 20 -1027
19 -1068 -1 -23 -11 -48 -12 -119 -4 -99 10 -943 21 -962 12z"/>
<path d="M5653 6707 c-36 -14 -53 -27 -34 -27 7 0 -2 -12 -21 -27 -18 -16 -35
-32 -37 -37 -2 -4 -12 -16 -22 -24 -11 -9 -19 -20 -19 -25 0 -8 -69 -95 -108
-136 -11 -11 -13 6 -11 100 l1 114 -58 17 c-33 10 -67 18 -76 18 -17 0 -18
-44 -18 -790 0 -744 1 -791 18 -797 9 -3 25 -15 34 -27 16 -20 24 -21 295 -21
300 1 363 8 445 52 62 34 111 85 111 117 0 16 4 23 11 19 7 -4 7 -2 -1 7 -11
12 -7 40 6 40 4 0 23 -21 42 -47 18 -27 55 -72 82 -101 41 -46 46 -56 35 -69
-11 -14 -91 -54 -153 -78 -11 -4 -15 -9 -8 -12 16 -6 159 57 173 77 3 4 15 11
28 15 19 5 25 3 29 -14 6 -25 28 -28 37 -5 3 9 6 39 7 67 0 41 2 47 9 30 5
-13 14 -23 19 -23 5 0 12 -13 16 -30 4 -16 11 -30 16 -30 5 0 9 -11 9 -25 0
-14 7 -28 15 -31 8 -4 15 -12 15 -20 0 -8 3 -14 8 -14 18 1 34 21 70 93 l39
77 6 -43 c3 -24 4 -53 0 -65 -3 -12 -2 -22 2 -22 10 0 35 27 35 39 0 5 8 15
18 20 14 9 14 12 3 20 -9 6 -10 11 -2 15 6 4 11 2 11 -3 0 -6 5 -11 10 -11 6
0 10 7 10 16 0 13 6 11 25 -10 13 -14 28 -26 34 -26 5 0 16 -6 23 -14 8 -7 25
-16 38 -20 23 -6 23 -5 6 6 -66 45 -96 69 -96 76 0 4 24 33 53 65 72 79 108
124 133 163 l21 34 12 -82 c9 -61 18 -86 32 -96 11 -8 18 -21 15 -30 -30 -99
367 -137 594 -58 126 44 235 128 281 217 17 34 19 60 19 228 0 217 10 199
-102 193 l-58 -4 0 -130 0 -131 -37 -48 c-20 -27 -42 -49 -49 -49 -6 0 -17 -6
-23 -14 -17 -20 -128 -73 -181 -86 -150 -37 -316 -38 -401 -2 -51 22 -59 37
-59 117 0 49 10 72 49 116 9 10 34 41 56 70 22 28 50 62 63 74 12 12 22 26 22
31 1 5 22 33 48 62 45 50 48 52 67 37 11 -9 14 -13 6 -9 -9 4 -12 3 -7 -4 4
-6 13 -9 20 -6 8 3 17 0 22 -7 5 -8 3 -10 -6 -4 -9 5 -11 4 -6 -3 8 -13 37
-17 35 -4 -1 4 -1 37 0 75 l1 67 39 0 c24 0 41 -5 44 -14 5 -11 49 -15 224
-18 120 -3 226 -8 235 -12 9 -4 14 -14 12 -21 -8 -20 43 -27 169 -23 82 2 108
0 112 -10 3 -8 5 -191 5 -408 0 -256 4 -394 10 -394 7 0 10 161 10 463 l0 463
-72 19 c-63 17 -120 20 -415 25 l-341 5 59 65 c32 36 59 68 59 73 0 4 29 40
64 81 35 40 61 78 58 83 -4 6 -47 12 -97 13 -114 3 -115 3 -115 -15 0 -8 -6
-12 -13 -9 -8 3 -27 -1 -43 -7 -16 -7 -31 -13 -34 -14 -3 0 -16 -7 -30 -15
-14 -8 -27 -15 -30 -15 -20 -3 -48 -28 -44 -39 4 -10 -5 -16 -25 -21 -17 -4
-31 -10 -31 -14 0 -4 -23 -15 -51 -25 -32 -12 -54 -27 -61 -42 -10 -22 -12
-22 -39 -9 -23 13 -108 15 -511 15 -427 0 -486 -2 -506 -16 -13 -9 -24 -14
-26 -13 -1 2 -9 16 -19 30 -10 17 -30 30 -54 36 -31 8 -38 13 -36 31 3 22 -12
31 -19 11 -2 -6 -14 -8 -31 -4 -18 5 -26 12 -23 21 3 7 1 16 -4 19 -4 3 -10 0
-12 -7 -3 -8 -9 -8 -24 0 -17 11 -18 11 -1 12 10 0 15 5 12 11 -4 6 -10 8 -13
5 -3 -3 -12 0 -20 7 -13 10 -15 9 -9 -6 6 -15 3 -17 -16 -11 -12 4 -31 13 -42
21 -18 12 -17 13 14 7 25 -5 32 -4 27 5 -4 6 -12 9 -17 5 -5 -3 -17 0 -25 7
-13 10 -17 10 -25 -2 -5 -8 -9 -11 -10 -6 -1 4 -3 12 -4 17 -1 6 -3 13 -4 16
0 4 -8 1 -17 -6 -12 -11 -15 -11 -12 1 2 8 -4 13 -14 13 -10 -1 -15 3 -11 9 4
6 -2 8 -18 4 -13 -4 -54 -7 -91 -7 -72 0 -85 -11 -53 -44 8 -8 15 -18 15 -23
0 -5 13 -20 30 -33 16 -14 29 -30 30 -35 0 -12 38 -60 88 -112 17 -18 32 -38
32 -43 0 -4 14 -22 30 -38 17 -17 30 -34 30 -39 0 -5 13 -20 30 -33 16 -14 29
-30 30 -37 0 -6 14 -25 30 -41 17 -17 30 -34 30 -38 0 -4 16 -22 35 -41 19
-19 35 -40 35 -48 0 -8 5 -15 10 -15 6 0 14 -8 17 -17 4 -10 19 -31 35 -46 15
-16 28 -34 28 -40 1 -7 14 -23 30 -37 17 -13 30 -28 30 -33 0 -5 14 -22 30
-39 17 -16 30 -34 30 -39 0 -6 11 -21 25 -33 l26 -24 -42 -36 c-24 -20 -51
-36 -60 -36 -10 0 -20 -4 -24 -9 -3 -5 -31 -13 -63 -17 -31 -3 -62 -10 -68
-15 -6 -5 -119 -8 -250 -7 l-239 3 -2 570 c-1 314 1 564 4 558 8 -21 25 -15
18 6 -4 13 7 30 37 60 24 22 49 41 57 41 7 0 24 11 37 25 35 38 127 36 224 -6
72 -30 160 -49 160 -33 -1 15 -23 39 -60 63 -35 23 -29 22 40 -6 19 -7 43 -16
53 -20 17 -5 25 -43 8 -43 -5 0 -12 -31 -16 -70 -4 -38 -12 -70 -17 -70 -6 0
-8 -12 -5 -29 4 -16 2 -31 -2 -33 -5 -2 -12 -24 -16 -49 -6 -38 -4 -47 10 -52
9 -4 14 -3 10 2 -3 5 8 12 23 16 25 5 30 13 40 56 7 28 12 59 12 70 0 10 5 19
11 19 12 0 1 -93 -12 -98 -5 -2 -9 -21 -9 -43 l0 -39 158 2 157 2 -147 3 c-89
2 -148 7 -148 13 0 15 31 131 41 155 4 11 9 28 11 38 3 17 28 18 461 18 252
-1 463 -3 468 -6 5 -4 9 -17 9 -30 0 -13 6 -39 14 -57 8 -18 20 -54 28 -80 13
-49 24 -60 35 -32 6 15 24 15 68 -2 16 -6 17 -1 10 47 -4 30 -10 59 -13 64 -4
6 -5 20 -3 33 1 12 -2 22 -7 22 -5 0 -13 25 -17 55 -3 30 -11 53 -16 50 -5 -3
-6 1 -3 9 3 8 1 24 -6 35 -9 18 -8 21 10 21 11 0 29 5 40 12 30 19 36 1 6 -23
-63 -50 24 -49 163 1 101 37 169 39 228 8 45 -25 106 -77 121 -104 5 -9 14
-14 20 -10 11 6 0 38 -18 56 -14 14 -88 108 -101 130 -31 49 -77 90 -101 90
-29 0 -265 -79 -345 -116 -17 -7 -34 -14 -37 -14 -4 0 -23 -7 -43 -15 -32 -14
-105 -16 -500 -15 l-463 0 0 -30 c0 -16 -4 -30 -10 -30 -5 0 -12 -22 -16 -50
-4 -27 -11 -50 -16 -50 -11 0 -1 79 12 95 4 6 11 24 14 40 l7 30 -143 59
c-138 56 -288 125 -288 132 0 2 19 -3 41 -11 58 -21 72 -17 24 6 -22 10 -34
19 -26 19 21 0 81 -23 81 -31 0 -4 8 -7 18 -7 9 0 26 -3 37 -7 16 -5 15 -3 -5
13 -16 13 -27 17 -31 10 -4 -7 -8 -6 -11 2 -2 8 -11 15 -19 17 -46 11 -78 11
-106 0z m-163 -466 c0 -5 14 -12 30 -16 17 -4 30 -10 30 -15 0 -5 14 -11 30
-15 17 -4 30 -11 30 -16 0 -5 6 -9 13 -9 7 0 30 -10 52 -22 22 -12 51 -27 65
-35 25 -13 25 -13 3 -13 -13 0 -23 -4 -23 -8 0 -19 165 -131 215 -146 14 -4
38 -40 69 -103 27 -54 52 -105 57 -113 5 -8 18 -35 30 -60 11 -25 25 -52 29
-60 16 -26 97 -193 116 -237 10 -24 21 -43 26 -43 4 0 8 -6 8 -14 0 -7 9 -33
20 -57 21 -44 29 -58 64 -114 l19 -30 -31 29 c-18 17 -32 35 -32 41 0 6 -8 18
-17 27 -27 25 -45 48 -37 48 3 0 -9 14 -27 31 -19 18 -34 36 -34 40 0 8 -16
28 -99 119 -12 14 -35 44 -50 68 -16 23 -33 42 -37 42 -5 0 -9 7 -9 15 0 8 -5
15 -10 15 -6 0 -14 8 -17 18 -4 9 -20 31 -35 47 -15 17 -28 34 -28 38 0 5 -13
20 -30 34 -16 13 -30 30 -30 37 0 7 -13 26 -30 42 -16 16 -30 33 -30 37 0 5
-13 20 -30 34 -16 13 -30 30 -30 36 0 7 -27 41 -60 77 -33 36 -60 70 -60 75 0
6 -18 30 -40 53 -23 23 -37 42 -33 42 4 0 -3 7 -15 16 -12 8 -20 19 -18 23 3
4 -4 14 -15 21 -21 16 -25 30 -9 30 6 0 10 -4 10 -9z m2140 0 c0 -4 -11 -17
-25 -27 -14 -10 -25 -24 -25 -30 0 -16 -35 -45 -45 -37 -4 5 -5 2 -1 -4 4 -7
2 -13 -3 -13 -6 0 -11 -6 -11 -12 0 -7 -18 -32 -40 -54 -21 -23 -37 -44 -34
-47 3 -3 -4 -8 -15 -12 -12 -3 -19 -11 -16 -16 4 -5 1 -9 -4 -9 -6 0 -11 -6
-11 -12 0 -7 -12 -24 -25 -37 -14 -13 -24 -26 -21 -28 2 -3 -6 -17 -19 -31
-73 -84 -85 -98 -85 -109 0 -7 -7 -13 -15 -13 -8 0 -15 -7 -15 -15 0 -9 -7
-18 -15 -21 -8 -4 -15 -12 -15 -20 0 -8 -7 -14 -15 -14 -8 0 -15 -4 -15 -10 0
-11 -44 -77 -70 -105 -56 -60 -99 -113 -95 -117 8 -8 -52 -57 -60 -50 -4 4 -4
-4 0 -18 4 -14 4 -22 0 -18 -4 3 -22 -9 -41 -29 -36 -36 -42 -49 -21 -38 6 4
0 -5 -15 -19 -16 -14 -28 -30 -28 -36 0 -5 -8 -18 -17 -28 -10 -9 -23 -29 -30
-44 -7 -15 -21 -31 -31 -37 -16 -8 -13 2 14 52 43 78 94 186 94 198 0 5 4 9 8
9 5 0 19 26 32 58 13 31 26 59 30 62 4 3 33 59 64 125 31 66 61 127 66 135 6
8 22 40 37 70 34 71 62 112 73 105 4 -3 31 11 59 30 28 19 54 35 58 35 9 1 83
68 83 75 0 3 -12 5 -27 5 -28 1 -28 1 7 19 19 9 53 27 75 39 22 12 45 22 52
22 7 0 13 4 13 9 0 5 14 12 30 16 17 4 30 10 30 15 0 5 14 11 30 15 17 4 30
11 30 16 0 5 5 9 10 9 6 0 10 -4 10 -9z m-620 -328 c0 -13 -5 -23 -11 -23 -6
0 -9 -7 -5 -15 3 -8 1 -15 -4 -15 -6 0 -10 -7 -10 -15 0 -9 -7 -18 -15 -21 -8
-4 -15 -15 -15 -25 0 -10 -4 -19 -9 -19 -5 0 -12 -16 -15 -36 -4 -19 -14 -38
-22 -41 -7 -3 -14 -14 -14 -24 0 -10 -4 -19 -9 -19 -5 0 -12 -16 -15 -36 -4
-19 -14 -38 -22 -41 -7 -3 -14 -14 -14 -24 0 -10 -5 -19 -11 -19 -5 0 -8 -4
-4 -9 3 -5 1 -12 -5 -16 -5 -3 -10 -15 -10 -26 0 -10 -5 -19 -11 -19 -6 0 -9
-6 -6 -13 3 -8 -3 -20 -13 -27 -11 -8 -17 -17 -14 -21 2 -4 0 -10 -6 -14 -5
-3 -10 -15 -10 -26 0 -10 -5 -19 -11 -19 -6 0 -9 -6 -6 -13 3 -8 -3 -20 -13
-27 -11 -8 -17 -17 -14 -21 2 -4 0 -10 -6 -14 -5 -3 -10 -15 -10 -26 0 -10 -5
-19 -11 -19 -6 0 -9 -7 -5 -15 3 -8 2 -15 -3 -15 -10 0 -51 -82 -51 -103 0 -8
-4 -17 -8 -19 -4 -1 -14 -20 -22 -42 -18 -45 -30 -49 -48 -15 -18 34 -36 83
-34 92 1 4 -3 7 -8 7 -6 0 -10 7 -10 15 0 8 -4 15 -10 15 -5 0 -12 16 -16 35
-3 19 -10 35 -16 35 -5 0 -6 5 -3 10 3 6 1 10 -4 10 -6 0 -11 7 -11 16 0 8 -7
22 -15 30 -8 9 -15 24 -15 35 0 10 -5 19 -11 19 -5 0 -7 5 -4 10 3 6 1 10 -4
10 -6 0 -11 9 -11 19 0 10 -7 21 -15 25 -8 3 -15 14 -15 25 0 11 -5 23 -10 26
-6 4 -8 11 -5 16 4 5 1 9 -4 9 -6 0 -11 9 -11 19 0 10 -7 21 -15 25 -8 3 -15
12 -15 21 0 8 -5 15 -11 15 -5 0 -8 4 -5 9 3 5 -1 22 -9 37 -8 16 -15 34 -15
39 0 6 -9 16 -20 23 -11 7 -17 18 -14 27 4 8 2 15 -4 15 -6 0 -14 15 -18 32
-3 18 -15 39 -25 46 -10 7 -16 19 -13 27 4 8 1 15 -5 15 -6 0 -11 7 -11 15 0
8 -4 15 -10 15 -5 0 -7 7 -4 15 4 8 1 15 -5 15 -6 0 -11 7 -11 15 0 8 -5 15
-11 15 -5 0 -8 3 -6 8 3 4 215 7 471 7 l466 0 0 -22z"/>
<path d="M7712 6635 c-63 -15 -82 -29 -32 -22 19 2 27 2 18 0 -21 -5 -24 -23
-5 -23 18 0 67 -53 67 -72 0 -9 5 -20 10 -23 6 -3 10 -43 10 -89 l0 -82 74 -2
73 -3 7 62 c13 126 8 145 -48 203 -31 32 -88 67 -108 65 -7 -1 -37 -7 -66 -14z"/>
</g>
</svg>
